:SAMPLES-PER-SECOND 30
:FULLY-SPECIFIED
:DEGREES
479
root  -61.6941 37.0178 17.6909 -145.21 -3.0994 178.485
RightUpLeg  -71.8136 -13.486 14.5795
RightLeg  40.0111 -4.25237 -4.10653
RightFoot  -4.15876 0.46445 -7.82898
RightToes  0.000482159 0.542163 -0.142577
Spine  70.3499 -2.42136 4.58379
Spine1  9.8094 1.65139 -4.07658
HEad  -36.4214 -8.59849 11.9903
LeftShoulder1  8.28519 -25.7134 -21.8313
LeftArm  -83.9442 -61.925 37.2357
LeftForeArm  -6.50343 -7.25802 0.96158
LeftHand  -0.25398 0.0180481 5.50724
RightShoulder  1.04233 10.3016 -0.969112
RightArm  -76.1477 76.4351 -16.561
RightForeArm  -17.2547 8.35491 4.13626
RightHand  -2.88152 13.9994 -17.6157
LeftUpLeg  -76.4207 24.9407 -34.3074
LeftLeg  36.8248 -0.494465 -0.0259835
LeftFoot  -5.35307 -0.526382 10.646
LeftToes  1.06248e-005 4.65855e-005 -8.18498e-006
480
root  -61.7805 36.8865 17.5421 -144.437 -3.0323 178.609
RightUpLeg  -72.8899 -13.3623 14.7405
RightLeg  40.8397 -4.14756 -4.12683
RightFoot  -4.64648 0.422124 -7.7318
RightToes  0.000482159 0.542163 -0.142577
Spine  70.7437 -2.41399 4.31612
Spine1  10.0548 1.5208 -4.32418
HEad  -35.8605 -7.94138 11.6545
LeftShoulder1  8.00206 -25.4353 -21.0899
LeftArm  -85.8965 -61.5223 38.8045
LeftForeArm  -6.69395 -8.15986 1.17264
LeftHand  -0.25398 0.0180481 5.50724
RightShoulder  0.999924 10.0086 -1.13975
RightArm  -78.2104 76.2837 -17.3137
RightForeArm  -17.7093 10.6499 4.15735
RightHand  -2.67855 13.2519 -17.0587
LeftUpLeg  -77.4559 24.4125 -34.3728
LeftLeg  37.9251 -0.114876 0.280574
LeftFoot  -6.08864 -0.455003 10.6884
LeftToes  1.06248e-005 4.65855e-005 -8.18498e-006
481
root  -61.8434 36.7847 17.3969 -143.808 -3.21545 178.879
RightUpLeg  -73.5423 -13.1192 14.7937
RightLeg  41.3154 -4.07639 -4.12692
RightFoot  -5.16814 0.363983 -7.38193
RightToes  0.000482159 0.542163 -0.142577
Spine  70.9987 -2.36453 4.17454
Spine1  10.2439 1.52007 -4.31188
HEad  -35.3802 -7.5251 11.2946
LeftShoulder1  7.7581 -25.296 -20.3341
LeftArm  -87.0967 -61.109 39.8481
LeftForeArm  -6.77034 -9.00456 1.26483
LeftHand  -0.25398 0.0180481 5.50724
RightShoulder  0.952094 9.56251 -1.26807
RightArm  -79.6247 76.1362 -17.5801
RightForeArm  -18.4612 12.8232 4.23194
RightHand  -2.61651 12.6699 -17.1899
LeftUpLeg  -78.4007 24.1196 -34.4239
LeftLeg  38.8501 -0.058698 0.330111
LeftFoot  -6.65427 -0.40629 10.8748
LeftToes  1.06248e-005 4.65855e-005 -8.18498e-006
482
root  -61.882 36.7142 17.2721 -143.556 -3.50648 179.199
RightUpLeg  -73.8667 -12.9448 14.9844
RightLeg  41.888 -4.30621 -4.42726
RightFoot  -5.49194 0.334187 -7.25296
RightToes  0.000482159 0.542163 -0.142577
Spine  71.4195 -2.27155 4.04283
Spine1  10.4565 1.50681 -4.14478
HEad  -35.0186 -7.25742 11.0643
LeftShoulder1  7.4802 -25.1423 -19.4566
LeftArm  -87.9381 -60.8073 40.3196
LeftForeArm  -6.57422 -9.82655 1.34454
LeftHand  -0.25398 0.0180481 5.50724
RightShoulder  0.931499 9.31629 -1.29155
RightArm  -80.4354 75.6907 -18.0628
RightForeArm  -19.2205 14.449 4.39081
RightHand  -2.71327 12.399 -18.0514
LeftUpLeg  -79.1222 24.2007 -34.475
LeftLeg  39.7426 -0.269104 0.145363
LeftFoot  -7.09401 -0.371656 11.1396
LeftToes  1.06248e-005 4.65855e-005 -8.18498e-006
483
root  -61.9024 36.6466 17.1707 -143.41 -3.81792 179.37
RightUpLeg  -74.2353 -12.8037 15.0609
RightLeg  42.6759 -4.78244 -5.01188
RightFoot  -5.65563 0.324943 -7.29681
RightToes  0.000482159 0.542163 -0.142577
Spine  71.7973 -2.20408 3.87374
Spine1  10.6072 1.36165 -3.94482
HEad  -34.6656 -6.95967 11.1009
LeftShoulder1  7.25671 -25.0314 -18.7297
LeftArm  -88.6721 -60.7372 40.4827
LeftForeArm  -6.04064 -10.3307 1.44177
LeftHand  -0.25398 0.0180481 5.50724
RightShoulder  0.934399 9.26711 -1.23375
RightArm  -80.5627 75.1768 -18.2448
RightForeArm  -20.1962 15.4009 4.53973
RightHand  -2.92915 12.4295 -19.3839
LeftUpLeg  -79.7073 24.2869 -34.6296
LeftLeg  40.5646 -0.509243 -0.0776514
LeftFoot  -7.40022 -0.352216 11.4944
LeftToes  1.06248e-005 4.65855e-005 -8.18498e-006
484
root  -61.9081 36.5669 17.0887 -143.204 -4.08876 179.381
RightUpLeg  -74.591 -12.5094 14.6758
RightLeg  43.3923 -5.12019 -5.47221
RightFoot  -5.94783 0.296749 -7.13586
RightToes  0.000482159 0.542163 -0.142577
Spine  71.9473 -2.17399 3.64243
Spine1  10.6068 1.16896 -3.75588
HEad  -34.366 -6.60425 11.2586
LeftShoulder1  7.18099 -25.1421 -18.3379
LeftArm  -88.95 -60.769 40.464
LeftForeArm  -5.47305 -10.3348 1.55213
LeftHand  -0.25398 0.0180481 5.50724
RightShoulder  0.917392 9.14498 -1.30707
RightArm  -80.6195 75.1291 -17.8285
RightForeArm  -21.0703 15.5807 4.53187
RightHand  -3.24593 12.7564 -21.0174
LeftUpLeg  -80.2346 24.2074 -34.8919
LeftLeg  41.2518 -0.634974 -0.203441
LeftFoot  -7.53755 -0.357921 12.0995
LeftToes  1.06248e-005 4.65855e-005 -8.18498e-006
485
root  -61.8957 36.4968 17.0284 -143.138 -4.23378 179.295
RightUpLeg  -74.6435 -12.0097 13.8495
RightLeg  43.912 -5.40485 -5.85914
RightFoot  -6.37175 0.258631 -6.93922
RightToes  0.000482159 0.542163 -0.142577
Spine  71.9877 -2.16661 3.37904
Spine1  10.5699 1.03695 -3.6525
HEad  -34.2501 -6.43084 11.3826
LeftShoulder1  7.18541 -25.4277 -18.0823
LeftArm  -88.7585 -60.8053 39.9903
LeftForeArm  -5.16729 -10.1795 1.68632
LeftHand  -0.25398 0.0180481 5.50724
RightShoulder  0.879774 8.98816 -1.54554
RightArm  -81.0688 75.4581 -17.2262
RightForeArm  -20.5402 14.9639 4.2372
RightHand  -3.40234 12.7632 -21.9821
LeftUpLeg  -80.5938 24.2289 -35.248
LeftLeg  41.7765 -0.701377 -0.274563
LeftFoot  -7.56895 -0.377653 12.7985
LeftToes  1.06248e-005 4.65855e-005 -8.18498e-006
